<svg width="20" height="16" fill="none" xmlns="http://www.w3.org/2000/svg"><path d="M.638 7.287c.161-.33.458-.507.78-.634 1.286-.499 2.573-.99 3.859-1.485L18.507.106c.104-.042.213-.075.322-.094.593-.083 1.012.27.994.896-.012.409-.102.814-.188 1.219-.907 4.267-1.818 8.53-2.733 12.794-.045.218-.12.436-.222.634-.195.383-.536.525-.945.402a1.988 1.988 0 0 1-.57-.27 834.395 834.395 0 0 1-4.113-3.008l-.176-.127a4.63 4.63 0 0 0-.154.135c-.701.667-1.403 1.338-2.1 2.006a1.03 1.03 0 0 1-.765.311c.019-.27.034-.536.052-.802.083-1.17.165-2.344.255-3.514a.412.412 0 0 1 .124-.248c2.655-2.392 5.314-4.78 7.972-7.166.02-.015.045-.03.057-.048.048-.094.097-.188.142-.282-.112-.022-.232-.078-.341-.06-.131.023-.255.098-.371.17-3.3 2.069-6.608 4.139-9.919 6.205-.071.045-.191.071-.27.045C4.152 8.873 2.746 8.434 1.34 8c-.285-.09-.543-.217-.7-.487v-.225Z" fill="#fff"/></svg>