<svg width="9" height="16" fill="none" xmlns="http://www.w3.org/2000/svg"><path d="M-.004 8.69V6.11c.116-.313.16-.347.495-.347h1.924v-.257c.013-.742-.012-1.486.054-2.225.087-.983.494-1.83 1.276-2.466C4.384.3 5.135.05 5.945.018c.748-.031 1.5-.012 2.247-.012.348 0 .445.097.445.44.003.724 0 1.447 0 2.17 0 .369-.088.46-.46.466-.535.01-1.067.01-1.603.022-.481.01-.744.231-.766.704-.025.623-.006 1.248-.006 1.874 0 .01.015.02.034.041h.203c.686 0 1.368-.003 2.053 0 .354.003.467.116.467.473.003.794.003 1.59 0 2.384 0 .322-.097.423-.42.423-.704.003-1.408.003-2.112.003h-.232v6.446c0 .238-.012.46-.288.548H2.694c-.235-.085-.282-.266-.279-.494.004-2.078.004-4.153.004-6.231V9.03H.5c-.339-.003-.392-.04-.505-.341Z" fill="#fff"/></svg>