<svg width="16" height="16" fill="none" xmlns="http://www.w3.org/2000/svg"><path d="M0 11.936V4.064c.025-.163.042-.33.081-.492C.488 1.78 1.574.63 3.346.131c.233-.064.477-.089.718-.131h7.872c.163.025.33.042.488.081 1.793.407 2.943 1.493 3.442 3.265.063.233.088.477.13.718v7.872c-.024.163-.042.33-.08.492-.408 1.793-1.493 2.942-3.265 3.441-.234.064-.478.089-.718.131H4.06c-.163-.025-.329-.042-.488-.081C1.78 15.512.63 14.426.131 12.654c-.064-.233-.089-.477-.131-.718Zm12.382-3.943A4.394 4.394 0 0 0 8 3.615c-2.42 0-4.4 1.984-4.386 4.392a4.394 4.394 0 0 0 4.382 4.379c2.42 0 4.4-1.985 4.386-4.393Zm.286-5.97a1.327 1.327 0 0 0-1.35 1.305 1.315 1.315 0 0 0 1.305 1.351 1.32 1.32 0 0 0 1.35-1.305c.025-.721-.558-1.33-1.305-1.351Z" fill="#fff"/><path d="M7.99 11.438a3.441 3.441 0 0 1-3.431-3.455 3.443 3.443 0 0 1 3.448-3.424 3.44 3.44 0 0 1-.018 6.879Zm4.664-8.471c.213.004.382.18.379.393a.397.397 0 0 1-.382.378.402.402 0 0 1-.39-.389.39.39 0 0 1 .393-.382Z" fill="#fff"/></svg>