<svg width="17" height="16" fill="none" xmlns="http://www.w3.org/2000/svg"><g clip-path="url(#a)"><path d="M6.592 16H6.06c-.216-.031-.432-.06-.648-.094-1.94-.325-3.563-1.873-3.979-3.8-.056-.263-.087-.532-.128-.798v-.532c.031-.206.056-.41.09-.616.426-2.402 2.628-4.22 5.244-4.066.147.01.294.034.431.05V8.78c-.206-.035-.4-.082-.594-.094-1.461-.097-2.656 1.164-2.49 2.621.194 1.683 2.052 2.63 3.516 1.777.804-.47 1.192-1.189 1.192-2.124 0-3.582 0-7.163.003-10.742V.003h2.602c.038.276.06.542.113.801.322 1.649 1.79 2.99 3.447 3.163l.522.056v2.565c-.04.006-.08.019-.122.019-1.407-.035-2.687-.457-3.825-1.289-.031-.022-.066-.038-.116-.066v.207c.006 1.83.016 3.656.019 5.486 0 .291-.019.585-.063.87-.3 1.94-1.798 3.566-3.716 4.023-.316.075-.644.11-.966.162Z" fill="#fff"/></g><defs><clipPath id="a"><path fill="#fff" transform="translate(.638)" d="M0 0h16v16H0z"/></clipPath></defs></svg>