<svg width="18" height="19" fill="none" xmlns="http://www.w3.org/2000/svg"><path d="M6.695.018h4.391c.18.028.358.056.538.08 2.6.35 4.841 2.528 5.255 5.116.056.338.096.685.092 1.023-.004 1.187.055 2.377-.06 3.552-.299 3.03-2.966 5.446-6.004 5.51-1.055.024-2.106.008-3.161.004a.504.504 0 0 0-.386.155c-.849.856-1.705 1.708-2.56 2.56h-.22c-.155-.103-.195-.25-.195-.43.008-.88 0-1.756.008-2.636 0-.17-.043-.266-.207-.354-1.672-.896-2.75-2.27-3.209-4.117a5.016 5.016 0 0 1-.163-1.19C.806 8.04.758 6.783.866 5.54 1.08 3.11 2.976.93 5.325.288c.446-.124.912-.183 1.37-.27ZM3.868 5.66c.028.804.322 1.525.712 2.21.976 1.715 2.318 3.097 3.95 4.196.689.462 1.421.848 2.258.975.473.076.943.056 1.321-.294.319-.295.63-.594.928-.904.358-.374.346-.9-.016-1.278-.41-.426-.824-.852-1.238-1.278-.522-.534-1.222-.41-1.529.267-.207.461-.693.7-1.163.505-1.079-.446-1.85-1.218-2.269-2.309-.211-.553.004-.967.557-1.186.59-.235.773-.936.35-1.406-.43-.478-.88-.94-1.341-1.39-.394-.386-.944-.362-1.334.024-.239.235-.47.486-.716.713-.339.31-.486.697-.47 1.155ZM9.74 2.503c-.043.003-.147.007-.25.015-.243.012-.375.124-.375.311 0 .171.136.267.379.279.262.012.53.008.788.051 2.07.375 3.352 2.27 2.938 4.336-.044.223.036.37.22.406.178.032.322-.08.37-.29.577-2.568-1.374-5.049-4.07-5.108ZM9.744 3.7c-.095 0-.19-.004-.286 0-.243.016-.382.155-.359.35.024.187.172.279.41.26a2.354 2.354 0 0 1 2.505 1.81c.056.251.044.522.048.781.004.207.103.366.278.386.171.02.31-.111.339-.326.012-.08.016-.16.016-.24A2.998 2.998 0 0 0 9.745 3.7Zm1.744 2.898c-.036-.891-.796-1.652-1.668-1.664-.235-.004-.37.088-.39.263-.016.18.111.295.362.318.621.06 1.071.514 1.119 1.127.02.227.131.362.306.355.184-.008.283-.152.271-.399Z" fill="#fff"/></svg>